{"title":"MÃƒÂ¸rke[x264][AC3(5.1)] Nordic+English_Sub.mkv","uid":5250499,"size":1530442590,"categoryP":"video","categoryS":"movies","magnet":"?xt=urn:btih:7514eb07c7ceb67fa1d033f07e78a42788da162d&amp;dn=M%C3%83%C2%B8rke%5Bx264%5D%5BAC3%285.1%29%5D+Nordic%2BEnglish_Sub.mkv&amp;tr=udp%3A%2F%2Ftracker.openbittorrent.com%3A80&amp;tr=udp%3A%2F%2Fopen.demonii.com%3A1337&amp;tr=udp%3A%2F%2Ftracker.coppersurfer.tk%3A6969&amp;tr=udp%3A%2F%2Fexodus.desync.com%3A6969","seeders":0,"leechers":1,"uploader":"Zen_Bud","files":-1,"time":1262327751,"description":"Plot:\n\nThe psychological thriller &quot;Murk&quot; tells the story of Jacob, who is investigating into the circumstances surrounding his sister's death on her wedding night\n\n\n\nGeneral\nComplete name                    : MÃƒÂ¸rke.mkv\nFormat                           : Matroska\nFile size                        : 1.43 GiB\nDuration                         : 1h 59mn\nOverall bit rate                 : 1 701 Kbps\n\n\nVideo\nID                               : 1\nFormat                           : AVC\nCodec ID                         : V_MPEG4/ISO/AVC\nDuration                         : 1h 59mn\nBit rate                         : 1 220 Kbps\nWidth                            : 720 pixels\nHeight                           : 556 pixels\nDisplay aspect ratio             : 16:9\nFrame rate                       : 25.000 fps\nResolution                       : 8 bits\nColorimetry                      : 4:2:0\nScan type                        : Progressive\nBits/(Pixel*Frame)               : 0.122\nStream size                      : 1.02 GiB (72%)\nWriting library                  : x264 core 79\n\n\nAudio\nID                               : 2\nFormat                           : AC-3\nFormat/Info                      : Audio Coding 3\nCodec ID                         : A_AC3\nDuration                         : 1h 59mn\nBit rate mode                    : Constant\nBit rate                         : 448 Kbps\nChannel(s)                       : 6 channels\nChannel positions                : Front: L C R, Surround: L R, LFE\nSampling rate                    : 48.0 KHz\nStream size                      : 384 MiB (26%)\nLanguage                         : Danish\n\nText #1\nLanguage                         : Danish\n\nText #2\nLanguage                         : Finnish\n\nText #3\nLanguage                         : Norwegian\n\nText #4\nLanguage                         : Swedish\n\nText #5\nLanguage                         : English\n\n\n\n","torrent":{"xt":"urn:btih:7514eb07c7ceb67fa1d033f07e78a42788da162d","amp;dn":"M%C3%83%C2%B8rke%5Bx264%5D%5BAC3%285.1%29%5D+Nordic%2BEnglish_Sub.mkv","amp;tr":["udp%3A%2F%2Ftracker.openbittorrent.com%3A80","udp%3A%2F%2Fopen.demonii.com%3A1337","udp%3A%2F%2Ftracker.coppersurfer.tk%3A6969","udp%3A%2F%2Fexodus.desync.com%3A6969"],"infoHash":"7514eb07c7ceb67fa1d033f07e78a42788da162d","infoHashBuffer":{"type":"Buffer","data":[117,20,235,7,199,206,182,127,161,208,51,240,126,120,164,39,136,218,22,45]},"announce":[],"urlList":[]}}